<svg xmlns="http://www.w3.org/2000/svg" width="1213" height="616" viewBox="0 0 1213 616" fill="none"><mask id="mask0_896_1556" style="mask-type:luminance" maskUnits="userSpaceOnUse" x="0" y="0" width="1213" height="616"><path d="M0.760254 0.511719H1212.65V615.053H0.760254V0.511719Z" fill="white"></path></mask><g mask="url(#mask0_896_1556)"><mask id="mask1_896_1556" style="mask-type:luminance" maskUnits="userSpaceOnUse" x="0" y="0" width="1213" height="616"><path d="M0.760254 0.90625V615.005H1212.57V0.90625H0.760254ZM1210.36 612.802H2.96859V3.10938H1210.36V612.802ZM14.4478 602.203C15.6769 602.323 19.1405 603.042 19.1405 607.286V607.729H1194.19V607.286C1194.19 603.052 1197.66 602.328 1198.89 602.203C1199.12 605.292 1201.71 607.729 1204.85 607.729H1205.29V607.286C1205.29 604.141 1202.85 601.552 1199.76 601.318C1199.84 599.927 1200.31 598.807 1201.18 598.005C1202.68 596.615 1204.77 596.62 1204.79 596.62L1205.29 596.625V19.2917H1204.79C1204.77 19.2969 1202.69 19.3021 1201.18 17.9115C1200.31 17.1042 1199.83 15.9844 1199.76 14.599C1202.84 14.3646 1205.29 11.776 1205.29 8.63021V8.1875H1204.85C1201.7 8.1875 1199.12 10.625 1198.88 13.7135C1197.66 13.5885 1194.19 12.8646 1194.19 8.63021V8.1875H19.1405V8.63021C19.1405 12.8646 15.6769 13.5885 14.4478 13.7135C14.2082 10.625 11.6248 8.1875 8.479 8.1875H8.0415V8.63021C8.0415 11.776 10.4842 14.3646 13.578 14.599C13.4946 15.9896 13.0207 17.1042 12.1509 17.9115C10.6405 19.3073 8.56755 19.2917 8.5415 19.2917L8.0415 19.3073V596.651L8.5415 596.62C8.56755 596.62 10.6457 596.615 12.1509 598.005C13.0207 598.813 13.4946 599.927 13.5728 601.318C10.479 601.552 8.0363 604.141 8.0363 607.286V607.729H8.479C11.6248 607.729 14.2082 605.292 14.4478 602.203ZM11.8228 596.667C10.6769 595.984 9.48421 595.802 8.92171 595.755V20.1563C9.48421 20.1094 10.6769 19.9271 11.8228 19.2448C12.9738 18.5625 14.3228 17.2135 14.4634 14.6198H14.4738V14.5885C15.8175 14.4479 19.7759 13.6458 20.0155 9.06771H1193.32C1193.56 13.6406 1197.52 14.4479 1198.86 14.5885V14.6198H1198.87C1199.01 17.2135 1200.36 18.5677 1201.52 19.2448C1202.66 19.9271 1203.85 20.1094 1204.42 20.1563V595.755C1203.85 595.802 1202.66 595.984 1201.52 596.667C1200.36 597.349 1199.02 598.698 1198.87 601.292H1198.86V601.323C1197.52 601.464 1193.56 602.266 1193.32 606.844H20.0155C19.7759 602.271 15.8175 601.464 14.4738 601.323V601.292H14.4634C14.3228 598.698 12.9738 597.349 11.8228 596.667Z" fill="white"></path></mask><g mask="url(#mask1_896_1556)"><path d="M0.760254 0.949219H1212.65V615.053H0.760254V0.949219Z" fill="white"></path></g></g></svg>